<svg version="1.0" id="Layer_1" xmlns="http://www.w3.org/2000/svg" xmlns:xlink="http://www.w3.org/1999/xlink" x="0px" y="0px"
	 viewBox="0 0 512 512" xml:space="preserve">
	<style>
		path {
			fill: rgb(31 41 55);;
		}
		@media ( prefers-color-scheme: dark ) {
			path {
				fill: #ffffff;
			}
		}
	</style>
	<path d="M257.56,267.41c82.13,0,164.26-0.01,246.39,0.01c7.27,0,7.57,0.1,7.54,6.67c-0.1,23.22-1.77,23.1-3.04,34.03
		c-0.43,3.74-2.5,3.35-4.92,3.35c-16.72-0.01-33.44,0-50.16,0c-9.84,0-19.67,0.09-29.51-0.05c-3.22-0.05-3.97,1.2-4.11,4.24
		c-0.61,13.41-0.71,13.41,12.52,13.43c4.92,0.01,9.84-0.01,14.75,0c11.43,0.04,10.84,0.07,11.42,11.74c0.31,6.42-2.69,5.96-7,5.94
		c-20.16-0.12-40.33,0.08-60.49-0.15c-4.77-0.06-7.81,0.35-6.62,6.19c0.38,1.88-0.14,3.93,0.1,5.85c0.55,4.32-0.88,6-5.54,5.78
		c-7.85-0.38-15.73-0.22-23.6-0.07c-7.17,0.14-9.03,2.15-9.27,9.45c-0.08,2.44,0.12,4.9-0.04,7.34c-0.23,3.46,1.69,3.8,4.52,3.78
		c15.24-0.1,30.49,0.08,45.73-0.13c4.13-0.06,6.4,0.5,5.98,5.38c-0.32,3.78-1.14,8.96,0.87,11.16c2.82,3.1,8.27,0.91,12.58,1.11
		c4.91,0.22,9.83,0.03,14.75,0.06c10.14,0.05,10.13,0.06,10.08,9.91c-0.04,7.83,1.31,8-7.87,7.71c-0.98-0.03-1.97-0.04-2.95,0
		c-8.05,0.35-9.36,1.75-9.85,10.39c-0.39,7.09-0.39,7.18-6.88,7.21c-13.77,0.06-27.54,0.13-41.31-0.05
		c-3.69-0.05-5.02,0.86-5.1,4.81c-0.11,5.2,2.67,11.99-1.48,15.17c-3.1,2.38-9.45,0.87-14.31,0.57c-4.09-0.26-5.07,1.45-4.78,5.06
		c0.24,2.92-0.09,5.88,0.08,8.8c0.2,3.33-1.45,3.93-4.41,3.91c-14.75-0.12-29.51-0.05-44.26-0.06c-1.91,0-4.32-0.44-4.44,2.26
		c-0.24,5.37-0.18,10.76,0,16.14c0.05,1.5,1.26,2.31,3.04,2.21c2.94-0.15,5.91-0.2,8.85,0.01c2.11,0.15,5.24-1.41,5.73,2.43
		c0.37,2.95,0.27,5.89-2.78,7.63c-1.18,0.67-2.44,1.4-3.75,1.6c-15.43,2.37-65.85,5.44-79.86,2.7
		c-22.88-4.47-45.68-9.21-67.44-18.62c-16.15-6.99-31.25-15.12-45.69-25c-8.17-5.59-16.5-10.81-23.5-17.88
		c-7.94-8.02-15.98-15.93-23.98-23.88c-17.81-17.72-34.06-46.25-45.63-73.66c-7.24-17.17-11.92-34.51-14.74-52.73
		c-0.52-3.34-0.67-5.37-1.31-9.65C0.87,282.8,1,275.03,1.2,268.27c9.74-0.86,13.54-0.79,20.3-0.8
		C100.19,267.38,178.87,267.41,257.56,267.41z"/>
	<path d="M255.12,246.85c-84.96-0.09-169.67,0.19-254.66-0.11l0,0C1.73,135.88,95.61,24.05,205.47,5.57
		c49.46-12.73,109.7-0.08,154.11,15.82c3.19,0.96,7.46,2.85,7.21,9.78c-0.23,6.39,2.03,14.92-0.63,20.23
		c-2.26,3.64-8.07,1.17-12.31,1.59c-6.28,0.62-7.99,2.95-7.84,10.95c0.13,6.7,2.08,9.42,7.68,9.57c8.85,0.23,17.71,0.16,26.56,0.01
		c3.13-0.06,4.51,0.99,4.16,4.14c-0.24,10.29,1.95,14.13-10.88,13.54c-6.78,0.2-6.78,0.2-6.85,7.26c0.05,6.77-1.32,11.32,6.68,10.35
		c7.87,0.07,15.74,0.12,23.61-0.03c3.4-0.07,5.87,0.32,5.16,4.61c-0.08,4.62,1.01,16.34,0.68,16c0,0,8.24,0.16,12.11-0.07
		c3.79-0.22,5.43,0.98,4.94,4.88c-0.79,3.83,2.12,10.56-4.25,9.94c-14.26-0.12-28.53,0.01-42.8-0.1c-3.7-0.03-6.24-0.22-6.3,5.07
		c-0.2,15.54-0.49,15.54,14.93,15.54c18.2,0,36.41,0.05,54.61-0.05c7.31-0.82,3.38,8.31,4.48,12.64c0.26,3.52-0.53,5.3-4.71,5.13
		c-7.86-0.33-15.74-0.12-23.61-0.09c-10.08,0.04-10.08,0.06-10.1,9.89c-0.02,10.62-0.02,10.65,10.8,10.66
		c30.22,0.91,61.36-1.75,91.19,0.99c10.38,6.08,7.21,37.29,6.1,41.42C425.79,249.83,340.01,245.35,255.12,246.85z M88.94,122.91
		c-0.98,81.45,101.36,108.66,140.11,41.9c12.14-22.07,13.95-48.61,1.8-71.11C194.99,26.4,92.22,48.65,88.94,122.91z"/>
</svg>